<?xml version="1.0" encoding="UTF-8"?>
<svg xmlns="http://www.w3.org/2000/svg" width="540" height="415" fill="none">
  <style>
  @keyframes a-1 {
    0%,100% {
      d: path("M452.012 311.78s-.555-10.483 5.998-16.866c4.547-4.431 10.854-6.511 16.997-7.938 11.427-2.665 22.348-2.251 33.993-2.976 0 0-5.066.162-18.996 15.874-5.127 5.787-11.487 11.924-18.996 14.882-6.034 2.373-15.949 4.588-18.996-2.976Z");
    }
    50% {
      d: path("M455.965 310.314s1.37-10.408 8.98-15.486c5.28-3.525 11.861-4.418 18.161-4.698 11.721-.532 22.383 1.87 33.964 3.286 0 0-5.01-.767-21.577 12.135-6.098 4.753-13.472 9.625-21.395 11.161-6.366 1.23-16.519 1.596-18.133-6.398Z");
    }
  }
  @keyframes a-2 {
    0%,100% {
      d: path("M478.209 258.915s6.855 7.014 15.942 5.981c6.315-.724 12.061-4.138 16.937-7.975 9.087-7.15 16.241-16.405 23.912-24.921 0 0-2.872 4.117-23.912 4.984-7.742.321-16.978 1.053-23.912 4.985-5.566 3.159-13.153 9.843-8.967 16.946Z");
    }
    50% {
      d: path("M480.141 259.948s7.809 5.934 16.646 3.58c6.141-1.642 11.324-5.861 15.586-10.371 7.94-8.405 13.66-18.608 20.001-28.157 0 0-2.238 4.494-22.923 8.435-7.612 1.452-16.641 3.53-22.923 8.435-5.043 3.942-11.569 11.666-6.387 18.078Z");
    }
  }
  @keyframes a-3 {
    0%,100% {
      d: path("M470.254 251.987s10.442.584 16.846-5.999c4.45-4.573 6.542-10.871 7.927-16.996C497.608 217.584 497.384 206.6 498 195c0 0-.089 4.976-15.855 18.996-5.812 5.162-11.952 11.498-14.864 18.995-2.344 6.029-4.721 16.047 2.973 18.996Z");
    }
    50% {
      d: path("M472.539 252.383s10.348-1.515 15.307-9.245c3.447-5.37 4.237-11.959 4.37-18.238.248-11.693-2.166-22.411-3.882-33.9 0 0 .908 4.894-11.738 21.781-4.662 6.22-9.412 13.656-10.767 21.584-1.091 6.376-1.418 16.667 6.71 18.018Z");
    }
  }
  @keyframes a-4 {
    0%,100% {
      d: path("M448.81 277s-9.251-1.039-13.849-9c-3.197-5.533-4.027-12.694-3.957-19 .116-11.743 2.919-22.535 4.946-34 0 0-.945 4.543 10.881 22 4.355 6.427 8.815 13.978 9.892 22 .869 6.439.067 16.949-7.913 18Z");
    }
    50% {
      d: path("M445.575 274.066s-8.961-2.523-12.209-11.124c-2.259-5.978-1.918-13.178-.828-19.39 2.016-11.569 6.529-21.765 10.386-32.75 0 0-1.668 4.329 7.175 23.471 3.257 7.048 6.435 15.221 6.199 23.312-.185 6.494-2.678 16.736-10.723 16.481Z");
    }
  }
  @keyframes a-5 {
    0%,100% {
      d: path("M424 297.214s-7.964-5.67-8-15.054c-.024-6.516 2.731-12.633 6-18.064 6.084-10.116 14.371-18.261 22-27.096 0 0-3.605 3.551-2 25.089.587 7.932.126 16.556-3 24.086-2.515 6.052-7.383 14.443-15 11.039Z");
    }
    50% {
      d: path("M425.142 294.741s-8.813-4.23-10.448-13.47c-1.133-6.417.538-12.915 2.835-18.823 4.271-11.005 11.05-20.442 17.062-30.448 0 0-2.947 4.113 2.303 25.063 1.93 7.716 2.945 16.293 1.148 24.245-1.447 6.392-4.815 15.49-12.9 13.433Z");
    }
  }
  @keyframes a-6 {
    0%,100% {
      d: path("M404 259.714s.172-10.217-7-15.957c-4.989-3.982-11.819-5.23-18-5.984-11.516-1.399-22.496-.586-34 0 0 0 4.486-.41 20 13.963 5.716 5.297 13.291 10.812 21 12.965 6.193 1.721 15.899 3.036 18-4.987Z");
    }
    50% {
      d: path("M402.85 260.767s2.535-9.899-3.111-17.144c-3.93-5.029-10.285-7.827-16.124-9.992-10.878-4.03-21.748-5.783-33.074-7.879 0 0 4.459.641 16.22 18.217 4.333 6.477 10.423 13.598 17.424 17.478 5.626 3.11 14.763 6.639 18.665-.68Z");
    }
  }
  @keyframes a-7 {
    0%,100% {
      d: path("M402.993 287.925s-3.423-9.61-11.998-13.087c-5.957-2.427-12.825-2.105-18.998-1.007-11.506 2.037-21.08 6.103-31.997 10.067 0 0 4.89-1.4 23.997 8.053 7.038 3.489 14.939 6.223 22.998 6.04 6.461-.146 16.299-1.601 15.998-10.066Z");
    }
    50% {
      d: path("M400.737 282.539s-5.51-8.586-14.65-10.031c-6.351-1.017-12.968.852-18.733 3.319-10.745 4.588-19.151 10.715-28.887 17.047 0 0 4.445-2.471 25.197 2.413 7.645 1.805 15.96 2.68 23.768.678 6.26-1.605 15.513-5.248 13.305-13.426Z");
    }
  }
  @keyframes a-8 {
    0%,100% {
      d: path("M250.748 308.133c-26.984.09-43.562-23.117-49.386-43.814l-.004-1c-1.116-4.158 1.771-8.915 5.996-10.015 4.226-1.087 7.948 1.808 9.064 5.967l1.009.996c4.438 15.753 16.185 32.969 35.277 31.867 7.62-.442 14.077-3.401 19.063-9.059 10.441-11.854 14.987-37.05 13.901-50.022-.29-3.434 2.518-6.731 6.006-7.017 3.513-.286 6.764 2.54 7.055 5.974 1.211 14.427-.49 45.692-14.867 62.02-7.81 8.863-18.179 13.398-30.1 14.093-.884.051-2.154.007-3.014.01Z");
    }
    50% {
      d: path("M268.298 316.216c-26.321 5.945-47.541-13.109-57.72-32.048l-.22-.975c-1.993-3.818-.207-9.088 3.679-11.078 3.888-1.979 8.15.039 10.143 3.856l1.2.754c7.753 14.413 22.956 28.668 41.354 23.448 7.342-2.086 13.004-6.376 16.642-12.981 7.619-13.838 6.586-39.42 2.71-51.848-1.029-3.289.996-7.116 4.34-8.153 3.367-1.042 7.154 1.011 8.182 4.3 4.315 13.82 9.442 44.709-1.047 63.768-5.7 10.348-14.837 17.025-26.323 20.292-.852.242-2.101.475-2.94.665Z");
    }
  }
  @keyframes a-9 {
    0%,100% {
      d: path("M250.748 308.133c-26.984.09-43.562-23.117-49.386-43.814l-.004-1c-1.116-4.158 1.771-8.915 5.996-10.015 4.226-1.087 7.948 1.808 9.064 5.967 6.56 16.353 15.534 34.06 36.286 32.863 7.62-.442 14.077-3.401 19.063-9.059 10.441-11.854 14.987-37.05 13.901-50.022-.29-3.434 2.518-6.731 6.006-7.017 3.513-.286 6.764 2.54 7.055 5.974 1.211 14.427-.49 45.692-14.867 62.02-7.81 8.863-18.179 13.398-30.1 14.093-.884.051-2.154.007-3.014.01Z");
    }
    50% {
      d: path("M268.298 316.216c-26.321 5.945-47.541-13.109-57.72-32.048l-.22-.975c-1.993-3.818-.207-9.088 3.679-11.078 3.888-1.979 8.15.039 10.143 3.856 9.952 14.539 22.557 29.876 42.554 24.202 7.342-2.086 13.004-6.376 16.642-12.981 7.619-13.838 6.586-39.42 2.71-51.848-1.029-3.289.996-7.116 4.34-8.153 3.367-1.042 7.154 1.011 8.182 4.3 4.315 13.82 9.442 44.709-1.047 63.768-5.7 10.348-14.837 17.025-26.323 20.292-.852.242-2.101.475-2.94.665Z");
    }
  }
  @keyframes a-10 {
    0%,100% {
      d: path("M217.186 259.441c-1.091-4.088-5.784-6.994-9.925-5.925-4.129 1.081-7.001 5.862-5.91 9.95 1.893 6.758 5.604 15.373 9.758 21.796l14.061-7.974c-3.807-5.403-6.318-11.897-7.984-17.847Z");
    }
    50% {
      d: path("M224.966 275.971c-1.953-3.754-7.165-5.572-10.975-3.629-3.796 1.951-5.562 7.242-3.609 10.995 3.316 6.187 8.808 13.79 14.257 19.158l11.995-10.836c-4.889-4.448-8.75-10.241-11.668-15.688Z");
    }
  }
  @keyframes a-11 {
    0%,100% {
      d: path("M234.182 292.175c.594-3.024-6.268 1.648-11.942 6.059 2.119 1.88 4.587 3.545 6.995 4.992 2.02-3.51 4.365-8.125 4.947-11.051Z");
    }
    50% {
      d: path("M248.663 304.234c-.077-3.081-5.761 2.97-10.342 8.507 2.477 1.376 5.247 2.465 7.912 3.355 1.21-3.865 2.497-8.879 2.43-11.862Z");
    }
  }
  @keyframes a-12 {
    0%,100% {
      d: path("M250.273 308.07c.842-.003 2.134.041 3-.01 2.586-.155 4.589-.447 6.996-1.014-3.29-4.365-7.729-10.424-9.036-10.869-1.485-.506-4.397 7.382-5.96 11.91 1.602.189 3.303-.011 5-.017Z");
    }
    50% {
      d: path("M267.821 316.257c.821-.186 2.092-.423 2.926-.661 2.491-.713 4.383-1.433 6.609-2.509-4.159-3.547-9.808-8.497-11.18-8.648-1.559-.171-2.689 8.161-3.233 12.92 1.606-.164 3.222-.728 4.878-1.102Z");
    }
  }
  @keyframes a-13 {
    0%,100% {
      d: path("M282.24 293.059c1.081-1.211 2.032-2.643 2.97-4.004-4.513-1.483-11.425-3.179-13.929-2.95-2.968.277.928 9.589 3.029 13.971 2.713-1.89 5.614-4.408 7.93-7.017Z");
    }
    50% {
      d: path("M295.767 294.664c.792-1.417 1.409-3.021 2.029-4.554-4.727-.467-11.842-.622-14.237.145-2.837.915 2.988 9.159 5.99 12.98 2.238-2.434 4.523-5.522 6.218-8.571Z");
    }
  }
  @keyframes a-14 {
    0%,100% {
      d: path("M282.166 268.05c-.459.914 5.183 5.336 9.007 7.97 1.202-3.575 2.229-7.287 2.956-11.01-4.621.94-11.503 2.137-11.963 3.04Z");
    }
    50% {
      d: path("M290.265 270.267c-.25.992 6.218 4.084 10.522 5.825.398-3.75.594-7.597.496-11.39-4.307 1.921-10.765 4.584-11.018 5.565Z");
    }
  }
  @keyframes a-15 {
    0%,100% {
      d: path("M296.971 250.962c.245-3.498-.035-6.882-.033-9.962-4.007 2.345-8.869 5.889-8.862 7.999.007 2.111 4.974 2.087 8.895 1.963Z");
    }
    50% {
      d: path("M301.007 250.373c-.52-3.468-1.527-6.71-2.195-9.717-3.402 3.159-7.379 7.674-6.914 9.732.465 2.059 5.309.957 9.109-.015Z");
    }
  }
  @keyframes a-16 {
    0%,100% {
      d: path("M291.627 226.257c-3.481.285-6.322 3.582-6.033 7.016.529 6.333.258 15.671-1.935 24.995 2.732-.141 5.553-.057 9.087.969-.487 6.371-2.345 15.835-9 25.018-11.686 16.131-29.633 21.01-43.337 19.135-6.12-.838-13.277-3.707-19.2-6.932 7.834 7.19 18.121 11.934 30.319 11.893.858-.003 1.136.044 2.019-.007 11.906-.695 22.439-5.229 30.232-14.094 14.344-16.33 16.141-47.59 14.933-62.02-.29-3.434-3.58-6.26-7.085-5.973Z");
    }
    50% {
      d: path("M290.427 227.417c-3.336 1.035-5.394 4.869-4.365 8.159 1.891 6.066 3.654 15.241 3.537 24.818 2.636-.73 5.408-1.261 9.08-1.026.909 6.325 1.149 15.966-3.354 26.375-7.905 18.283-24.364 26.942-38.149 28.087-6.156.511-13.765-.737-20.247-2.599 9.209 5.319 20.279 7.716 32.178 5.028.837-.189 1.119-.204 1.969-.445 11.471-3.264 20.769-9.976 26.451-20.321 10.458-19.055 5.425-49.96 1.113-63.783-1.028-3.29-4.854-5.333-8.213-4.293Z");
    }
  }
  @keyframes a-17 {
    0%,100% {
      d: path("M205.093 145s-12.241 17.966-14.079 36.066c-1.838 18.099-.498 29.527 5.028 34.061 5.527 4.522 11.008 3.217 14.079-1.001 3.072-4.219-1.005-19.035-1.005-19.035s5.092-14.091 13.073-24.043c7.981-9.953 9.051-12.022 9.051-12.022S217.367 144.091 205.093 145Z");
    }
    50% {
      d: path("M205.511 149.637s-8.07 20.186-5.953 38.256c2.116 18.069 5.894 28.937 12.269 32.17 6.373 3.221 11.443.762 13.53-4.02 2.088-4.783-5.095-18.368-5.095-18.368s1.928-14.858 7.569-26.3c5.642-11.443 6.24-13.694 6.24-13.694s-16.773-11.584-28.56-8.044Z");
    }
  }
  @keyframes a-18 {
    0%,100% {
      d: path("M205 145s-3.317 5.394-7 12.982c6.045 2.425 15.04 7.232 21 15.978.727-1.049 2.225-2.006 3-2.995 7.838-9.905 9-11.984 9-11.984S217.054 144.095 205 145Z");
    }
    50% {
      d: path("M205.42 149.657s-2.073 5.983-4.029 14.188c6.426 1.061 16.247 3.811 23.956 11.063.483-1.182 1.739-2.44 2.282-3.573 5.513-11.365 6.198-13.646 6.198-13.646s-16.833-11.52-28.407-8.032Z");
    }
  }
  @keyframes a-19 {
    0%,100% {
      d: path("M203.947 146c-1.044 1.576-2.74 4.753-4.947 9.035 2.207.577 4.359 1.508 6.925 3.012 9.248 5.388 11.891 5.773 8.904-2.008-1.859-4.847-7.044-7.922-10.882-10.039Z");
    }
    50% {
      d: path("M204.608 150.861c-.679 1.764-1.648 5.233-2.878 9.89 2.28.087 4.582.531 7.413 1.444 10.193 3.263 12.857 3.068 8.259-3.884-2.862-4.331-8.59-6.213-12.794-7.45Z");
    }
  }
  @keyframes a-20 {
    0%,100% {
      d: path("M209 176.837c0-3.005-5.709-9.291-14-11.837-1.074 2.718-2.284 5.93-3 8.878 2.243.413 5.97 1.399 9 2.959 4.45 2.282 8 3.429 8 0Z");
    }
    50% {
      d: path("M216.205 179.877c-.65-2.934-7.582-7.837-16.227-8.532-.461 2.886-.949 6.283-1.011 9.316 2.279-.081 6.131.076 9.427.945 4.838 1.267 8.552 1.62 7.811-1.729Z");
    }
  }
  @keyframes a-21 {
    0%,100% {
      d: path("M205.093 145s-12.241 17.966-14.079 36.066c-1.838 18.099-.498 29.527 5.028 34.061 5.527 4.522 11.008 3.217 14.079-1.001 3.072-4.219-1.005-19.035-1.005-19.035s5.092-14.091 13.073-24.043c7.981-9.953 9.051-12.022 9.051-12.022S217.367 144.091 205.093 145v0Z");
    }
    50% {
      d: path("M205.511 149.637s-8.07 20.186-5.953 38.256c2.116 18.069 5.894 28.937 12.269 32.17 6.373 3.221 11.443.762 13.53-4.02 2.088-4.783-5.095-18.368-5.095-18.368s1.928-14.858 7.569-26.3c5.642-11.443 6.24-13.694 6.24-13.694s-16.773-11.584-28.56-8.044v0Z");
    }
  }
  @keyframes a-22 {
    0%,100% {
      d: path("M196.24 214.96s-2-4.682-2-12M204.24 216.96s-2.726-5.172-3-14");
    }
    50% {
      d: path("M211.984 219.857s-2.965-4.139-4.546-11.284M220.227 220.082s-3.779-4.461-5.954-13.021");
    }
  }
  @keyframes a-23 {
    0%,100% {
      d: path("M303.867 137s14.379 16.347 17.9 33.849c3.521 17.503 2.893 29.908-1.989 34.845-4.881 4.938-10.568 3.844-13.922 0-3.366-3.831 0-18.915 0-18.915s-7.271-13.927-15.911-22.899c-8.641-8.971-9.945-9.955-9.945-9.955s11.956-16.651 23.867-16.925Z");
    }
    50% {
      d: path("M304.914 139.742s11.638 18.4 12.371 36.238c.733 17.838-1.833 29.991-7.428 34.102-5.595 4.111-11.04 2.138-13.75-2.183-2.723-4.312 2.966-18.682 2.966-18.682s-4.997-14.894-12.124-25.11c-7.127-10.215-8.26-11.392-8.26-11.392s14.418-14.57 26.225-12.973Z");
    }
  }
  @keyframes a-24 {
    0%,100% {
      d: path("M305.06 138c1.215 1.483 3.378 3.97 6.028 8.053-2.164.802-4.59 2.264-7.033 4.027-8.801 6.331-10.275 7.124-8.038-1.007 1.398-5.056 5.384-8.557 9.043-11.073Z");
    }
    50% {
      d: path("M305.935 140.917c.968 1.655 2.714 4.45 4.691 8.899-2.263.453-4.888 1.516-7.577 2.874-9.685 4.873-11.265 5.425-7.781-2.255 2.174-4.774 6.659-7.607 10.667-9.518Z");
    }
  }
  @keyframes a-25 {
    0%,100% {
      d: path("M303.102 169.04c-.317-3.073 4.826-9.649 12.989-13.04 1.375 2.673 2.975 5.081 3.997 8.025-2.226.636-6.073 2.116-8.993 4.012-4.282 2.767-7.64 4.512-7.993 1.003Z");
    }
    50% {
      d: path("M299.134 171.266c.17-3.085 6.28-8.772 14.874-10.842.938 2.856 2.141 5.485 2.689 8.552-2.299.279-6.33 1.138-9.511 2.553-4.663 2.061-8.253 3.258-8.052-.263Z");
    }
  }
  @keyframes a-26 {
    0%,100% {
      d: path("M304 137c-12.08.28-24 17-24 17s1.237 1.837 10 11c1.634 1.704 3.548 3.09 5 5 3.062-5.147 9.147-13.622 19-19-4.866-8.518-10-14-10-14Z");
    }
    50% {
      d: path("M305.046 139.763c-11.975-1.617-26.369 13.027-26.369 13.027s.933 2.008 8.151 12.432c1.347 1.938 3.019 3.607 4.154 5.722 3.832-4.603 11.171-12.019 21.745-15.786-3.47-9.175-7.681-15.395-7.681-15.395Z");
    }
  }
  @keyframes a-27 {
    0%,100% {
      d: path("M303.867 137s14.379 16.347 17.9 33.849c3.521 17.503 2.893 29.908-1.989 34.845-4.881 4.938-10.568 3.844-13.922 0-3.366-3.831 0-18.915 0-18.915s-7.271-13.927-15.911-22.899c-8.641-8.971-9.945-9.955-9.945-9.955s11.956-16.651 23.867-16.925v0Z");
    }
    50% {
      d: path("M304.914 139.742s11.638 18.4 12.371 36.238c.733 17.838-1.833 29.991-7.428 34.102-5.595 4.111-11.04 2.138-13.75-2.183-2.723-4.312 2.966-18.682 2.966-18.682s-4.997-14.894-12.124-25.11c-7.127-10.215-8.26-11.392-8.26-11.392s14.418-14.57 26.225-12.973v0Z");
    }
  }
  @keyframes a-28 {
    0%,100% {
      d: path("M320 205s1.405-4.802.884-12M312 208s2.442-5.343 1.929-14");
    }
    50% {
      d: path("M310.185 209.431s2.141-4.523 2.755-11.713M301.814 211.139s3.249-4.894 4.1-13.524");
    }
  }



  .a {animation: 4s ease-out 0s infinite normal;}

  .a--1 {animation-name: a-1;}
  .a--2 {animation-name: a-2;}
  .a--3 {animation-name: a-3;}
  .a--4 {animation-name: a-4;}
  .a--5 {animation-name: a-5;}
  .a--6 {animation-name: a-6;}
  .a--7 {animation-name: a-7;}
  .a--8 {animation-name: a-8;}
  .a--9 {animation-name: a-9;}
  .a--10 {animation-name: a-10;}
  .a--11 {animation-name: a-11;}
  .a--12 {animation-name: a-12;}
  .a--13 {animation-name: a-13;}
  .a--14 {animation-name: a-14;}
  .a--15 {animation-name: a-15;}
  .a--16 {animation-name: a-16;}
  .a--17 {animation-name: a-17;}
  .a--18 {animation-name: a-18;}
  .a--19 {animation-name: a-19;}
  .a--20 {animation-name: a-20;}
  .a--21 {animation-name: a-21;}
  .a--22 {animation-name: a-22;}
  .a--23 {animation-name: a-23;}
  .a--24 {animation-name: a-24;}
  .a--25 {animation-name: a-25;}
  .a--26 {animation-name: a-26;}
  .a--27 {animation-name: a-27;}
  .a--28 {animation-name: a-28;}
</style>
  <path stroke="#CED8EB" stroke-miterlimit="10" stroke-width="1.335" d="M55 359H43M475 359H43"></path>
  <path fill="#7992B2" d="M340 401c20.158 0 36-4.477 36-10s-15.842-10-36-10-37 4.477-37 10 16.842 10 37 10Z"></path>
  <path fill="#fff" d="M150.08 413.858c-38.074 0-43.485-5.531-44.039-9.89-.241-1.89.605-3.516 2.002-4.945 10.259-10.562 69.314-6.191 151.135 0 11.415.862 22.929 2.081 35.031 2.967 82.663 6.025 116.27 5.184 123.11-2.967 1.397-1.666 1.783-4.124 1.001-6.924-3.276-11.766-47.465-11.824-64.058-10.879-.782.035-.952-.209-1-.989-.049-.768.206-1.931 1-1.978 6.346-.366 61.592-2.22 66.059 13.846 1.036 3.71 1.022 6.492-1.001 8.902-7.718 9.191-39.221 10.205-125.111 3.956-12.102-.886-23.616-2.105-35.031-2.967-77.98-5.895-139.802-10.594-149.134-.989a3.62 3.62 0 0 0-1.001 2.967c.35 2.776 6.594 9.097 62.056 6.923 30.982-1.217 62.743-4.91 63.056-4.945.783-.083.917.221 1.001.989.084.768-.218 1.895-1.001 1.978-.313.035-30.977 3.728-62.055 4.945-8.056.319-15.807 0-22.02 0Z"></path>
  <path stroke="#7992B2" stroke-miterlimit="10" stroke-width="1.335" d="M150.08 413.858c-38.074 0-43.485-5.531-44.039-9.89-.241-1.89.605-3.516 2.002-4.945 10.259-10.562 69.314-6.191 151.135 0 11.415.862 22.929 2.081 35.031 2.967 82.663 6.025 116.27 5.184 123.11-2.967 1.397-1.666 1.783-4.124 1.001-6.924-3.276-11.766-47.465-11.824-64.058-10.879-.782.035-.952-.209-1-.989-.049-.768.206-1.931 1-1.978 6.346-.366 61.592-2.22 66.059 13.846 1.036 3.71 1.022 6.492-1.001 8.902-7.718 9.191-39.221 10.205-125.111 3.956-12.102-.886-23.616-2.105-35.031-2.967-77.98-5.895-139.802-10.594-149.134-.989a3.62 3.62 0 0 0-1.001 2.967c.35 2.776 6.594 9.097 62.056 6.923 30.982-1.217 62.743-4.91 63.056-4.945.783-.083.917.221 1.001.989.084.768-.218 1.895-1.001 1.978-.313.035-30.977 3.728-62.055 4.945-8.056.319-15.807 0-22.02 0Z"></path>
  <path fill="#fff" d="M335.314 398.029c23.13-5.382 37.531-28.5 32.164-51.634-5.366-23.134-28.467-37.524-51.597-32.141-23.13 5.382-37.531 28.5-32.164 51.634 5.366 23.134 28.467 37.524 51.597 32.141Z"></path>
  <path fill="#fff" d="M335.341 398.036c23.132-5.376 37.528-28.487 32.155-51.619-5.373-23.132-28.48-37.527-51.612-32.151-23.132 5.376-37.528 28.487-32.155 51.619 5.373 23.132 28.481 37.527 51.612 32.151Z"></path>
  <path fill="#CCE8FF" d="M326 399c23.72 0 43-19.326 43-43 0-8.952-2.297-17.118-7-24-.48 18.659-11.285 46.509-65 56 7.643 7.002 17.806 11 29 11Z"></path>
  <path stroke="#7992B2" stroke-linecap="round" stroke-linejoin="round" stroke-width="1.335" d="M347 373c-12.577-12.381-27-15.979-27-15.979s14.423 3.586 27 15.979Zm0 0h2c5.942-6.016 10.155-11.9 13-16.977M347 373v0c-17.622-.265-30.945-3.393-41-6.991.646-27.216 9.955-45.252 15-52.929 1.59-.18 3.362 0 5 0 1.459 0 3.577-.144 5 0m31 42.943c-20.049-21.345-39-18.975-39-18.975m39 18.975c1.1-1.986 2.247-4.272 3-5.992-8.297-11.768-22.241-19.745-30-20.972h-2m0 0c-5.189-.818-9 0-9 0s3.799-.818 9 0Zm0 0 5-13.981c-2.379-.686-4.465-1.745-7-1.998m0 0c-3.3 5.379-12 22.849-12 56.924 0-34.087 8.7-51.557 12-56.924Zm26 50.932c-17.06-16.725-36-16.977-36-16.977"></path>
  <path stroke="#7992B2" stroke-linecap="round" stroke-linejoin="round" stroke-width="1.335" d="M306 366c.639-27.197 10.004-45.317 15-53-3.99.457-7.424 1.497-11 3-5.411 7.996-14.301 23.67-15 45 3.066 1.683 6.844 3.497 11 5Z"></path>
  <path stroke="#7992B2" stroke-linecap="round" stroke-linejoin="round" stroke-width="1.335" d="M310 316c-15.038 6.08-25.853 20.352-27 37 2.673 2.441 6.605 5.14 12 8 .72-21.219 9.422-37.029 15-45ZM359 327c4.227 4.742 7.171 10.746 9 17-.533 1.79-.91 3.544-2 6v0c-12.462-15.617-25.14-20.766-33-22l5-14c4.093 1.161 8.488 2.762 12 5m9 8-4 11m4-11c-2.664-2.988-5.609-5.835-9-8m0 0-4 14"></path>
  <path stroke="#7992B2" stroke-linecap="round" stroke-linejoin="round" stroke-width="1.335" d="M364.99 349.998c1.079-2.429 1.472-4.227 2-5.998 1.115 3.818 1.999 7.807 1.999 11.997 0 .622.024 1.377 0 1.999v0c-18.127 25.35-32.312 36.272-40.992 40.988-.707.036-1.28 0-1.999 0-4.52 0-8.91-.707-12.998-1.999 5.611-2.574 10.465-5.245 14.997-7.998m36.993-38.989c.012.012-.012-.012 0 0m0 0c-.755 1.712-.897 2.024-2 3.999.06.072-1.071 1.928-.999 2-.06-.072-.928 2.071-1 1.999-2.854 5.063-11.13 14.996-10.998 14.996-.144 0-5.529 3.939-7.999 5.998m0 0h1m-1 0a113.291 113.291 0 0 1-13.997 9.997m0 0c.108-.024.904.012 1 0-.096.024-.892-.012-1 0Z"></path>
  <path stroke="#7992B2" stroke-linecap="round" stroke-linejoin="round" stroke-width="1.335" d="M369 358c-18.217 25.351-32.277 36.286-41 41 22.241-1.089 40.048-18.879 41-41ZM292 383c5.282 6.498 12.734 11.436 21 14 5.631-2.54 10.452-5.271 15-8-10.275 1.867-26.35-2.68-36-6Z"></path>
  <path stroke="#7992B2" stroke-linecap="round" stroke-linejoin="round" stroke-width="1.335" d="M328 389.601c5.447-3.347 9.918-7.377 14-10.809-30.862 3.19-49.908-6.294-58-11.792 1.544 5.897 4.337 11.082 8 15.722 9.613 3.408 25.777 8.788 36 6.879Z"></path>
  <path stroke="#7992B2" stroke-linecap="round" stroke-linejoin="round" stroke-width="1.335" d="M347.001 373.266c.764.012 1.235 0 1.999 0-2.018 2.109-4.537 3.946-6.997 6.08-30.789 3.275-49.903-6.527-57.977-12.16-.919-3.635-.999-7.213-.999-11.146 0-1.03-.06-2.035 0-3.04 2.615 2.531 8.312 7.888 22.99 13.173m40.984 7.093c.167.161-.167.84 0 1.013-.167-.173.167-.839 0-1.013Zm0 0c-17.592-.26-30.94-3.371-40.984-7.093m0 0s0-.012 0 0c0 0 0 .012 0 0Z"></path>
  <path stroke="#7992B2" stroke-linecap="round" stroke-linejoin="round" stroke-width="1.335" d="M335.314 398.029c23.13-5.382 37.531-28.5 32.164-51.634-5.366-23.134-28.467-37.524-51.597-32.141-23.13 5.382-37.531 28.5-32.164 51.634 5.366 23.134 28.467 37.524 51.597 32.141ZM435 349l-17-42-20-49M438 342l17-59 19-36M445 318l17-10M455 284l-9-19M465 264l21-9M420 312l7-29M411 292l-17-9"></path>
  <path fill="#4D5F7D" d="M443 370h-14c-4.801 0-9.104-3.256-10-8l-5-27h44l-5 27c-.896 4.744-5.199 8-10 8Z"></path>
  <path class="a a--7" fill="url(#a)" d="M402.993 287.925s-3.423-9.61-11.998-13.087c-5.957-2.427-12.825-2.105-18.998-1.007-11.506 2.037-21.08 6.103-31.997 10.067 0 0 4.89-1.4 23.997 8.053 7.038 3.489 14.939 6.223 22.998 6.04 6.461-.146 16.299-1.601 15.998-10.066Z"></path>
  <path class="a a--6" fill="url(#b)" d="M404 259.714s.172-10.217-7-15.957c-4.989-3.982-11.819-5.23-18-5.984-11.516-1.399-22.496-.586-34 0 0 0 4.486-.41 20 13.963 5.716 5.297 13.291 10.812 21 12.965 6.193 1.721 15.899 3.036 18-4.987Z"></path>
  <path class="a a--5" fill="url(#c)" d="M424 297.214s-7.964-5.67-8-15.054c-.024-6.516 2.731-12.633 6-18.064 6.084-10.116 14.371-18.261 22-27.096 0 0-3.605 3.551-2 25.089.587 7.932.126 16.556-3 24.086-2.515 6.052-7.383 14.443-15 11.039Z"></path>
  <path class="a a--1" fill="url(#d)" d="M452.012 311.78s-.555-10.483 5.998-16.866c4.547-4.431 10.854-6.511 16.997-7.938 11.427-2.665 22.348-2.251 33.993-2.976 0 0-5.066.162-18.996 15.874-5.127 5.787-11.487 11.924-18.996 14.882-6.034 2.373-15.949 4.588-18.996-2.976Z"></path>
  <path class="a a--4" fill="url(#e)" d="M448.81 277s-9.251-1.039-13.849-9c-3.197-5.533-4.027-12.694-3.957-19 .116-11.743 2.919-22.535 4.946-34 0 0-.945 4.543 10.881 22 4.355 6.427 8.815 13.978 9.892 22 .869 6.439.067 16.949-7.913 18Z"></path>
  <path class="a a--2" fill="url(#f)" d="M478.209 258.915s6.855 7.014 15.942 5.981c6.315-.724 12.061-4.138 16.937-7.975 9.087-7.15 16.241-16.405 23.912-24.921 0 0-2.872 4.117-23.912 4.984-7.742.321-16.978 1.053-23.912 4.985-5.566 3.159-13.153 9.843-8.967 16.946Z"></path>
  <path class="a a--3" fill="url(#g)" d="M470.254 251.987s10.442.584 16.846-5.999c4.45-4.573 6.542-10.871 7.927-16.996C497.608 217.584 497.384 206.6 498 195c0 0-.089 4.976-15.855 18.996-5.812 5.162-11.952 11.498-14.864 18.995-2.344 6.029-4.721 16.047 2.973 18.996Z"></path>
  <path class="a a--8" fill="#fff" d="M250.748 308.133c-26.984.09-43.562-23.117-49.386-43.814l-.004-1c-1.116-4.158 1.771-8.915 5.996-10.015 4.226-1.087 7.948 1.808 9.064 5.967l1.009.996c4.438 15.753 16.185 32.969 35.277 31.867 7.62-.442 14.077-3.401 19.063-9.059 10.441-11.854 14.987-37.05 13.901-50.022-.29-3.434 2.518-6.731 6.006-7.017 3.513-.286 6.764 2.54 7.055 5.974 1.211 14.427-.49 45.692-14.867 62.02-7.81 8.863-18.179 13.398-30.1 14.093-.884.051-2.154.007-3.014.01Z"></path>
  <path class="a a--8" fill="#fff" d="M250.748 308.133c-26.984.09-43.562-23.117-49.386-43.814l-.004-1c-1.116-4.158 1.771-8.915 5.996-10.015 4.226-1.087 7.948 1.808 9.064 5.967l1.009.996c4.438 15.753 16.185 32.969 35.277 31.867 7.62-.442 14.077-3.401 19.063-9.059 10.441-11.854 14.987-37.05 13.901-50.022-.29-3.434 2.518-6.731 6.006-7.017 3.513-.286 6.764 2.54 7.055 5.974 1.211 14.427-.49 45.692-14.867 62.02-7.81 8.863-18.179 13.398-30.1 14.093-.884.051-2.154.007-3.014.01Z"></path>
  <path class="a a--16" fill="#CCE8FF" d="M291.627 226.257c-3.481.285-6.322 3.582-6.033 7.016.529 6.333.258 15.671-1.935 24.995 2.732-.141 5.553-.057 9.087.969-.487 6.371-2.345 15.835-9 25.018-11.686 16.131-29.633 21.01-43.337 19.135-6.12-.838-13.277-3.707-19.2-6.932 7.834 7.19 18.121 11.934 30.319 11.893.858-.003 1.136.044 2.019-.007 11.906-.695 22.439-5.229 30.232-14.094 14.344-16.33 16.141-47.59 14.933-62.02-.29-3.434-3.58-6.26-7.085-5.973Z"></path>
  <path class="a a--9" stroke="#7992B2" stroke-linecap="round" stroke-linejoin="round" stroke-width="1.335" d="M250.748 308.133c-26.984.09-43.562-23.117-49.386-43.814l-.004-1c-1.116-4.158 1.771-8.915 5.996-10.015 4.226-1.087 7.948 1.808 9.064 5.967 6.56 16.353 15.534 34.06 36.286 32.863 7.62-.442 14.077-3.401 19.063-9.059 10.441-11.854 14.987-37.05 13.901-50.022-.29-3.434 2.518-6.731 6.006-7.017 3.513-.286 6.764 2.54 7.055 5.974 1.211 14.427-.49 45.692-14.867 62.02-7.81 8.863-18.179 13.398-30.1 14.093-.884.051-2.154.007-3.014.01Z"></path>
  <path class="a a--10" fill="url(#h)" d="M217.186 259.441c-1.091-4.088-5.784-6.994-9.925-5.925-4.129 1.081-7.001 5.862-5.91 9.95 1.893 6.758 5.604 15.373 9.758 21.796l14.061-7.974c-3.807-5.403-6.318-11.897-7.984-17.847Z"></path>
  <path class="a a--11" fill="url(#i)" d="M234.182 292.175c.594-3.024-6.268 1.648-11.942 6.059 2.119 1.88 4.587 3.545 6.995 4.992 2.02-3.51 4.365-8.125 4.947-11.051Z"></path>
  <path class="a a--12" fill="url(#j)" d="M250.273 308.07c.842-.003 2.134.041 3-.01 2.586-.155 4.589-.447 6.996-1.014-3.29-4.365-7.729-10.424-9.036-10.869-1.485-.506-4.397 7.382-5.96 11.91 1.602.189 3.303-.011 5-.017Z"></path>
  <path class="a a--13" fill="url(#k)" d="M282.24 293.059c1.081-1.211 2.032-2.643 2.97-4.004-4.513-1.483-11.425-3.179-13.929-2.95-2.968.277.928 9.589 3.029 13.971 2.713-1.89 5.614-4.408 7.93-7.017Z"></path>
  <path class="a a--14" fill="url(#l)" d="M282.166 268.05c-.459.914 5.183 5.336 9.007 7.97 1.202-3.575 2.229-7.287 2.956-11.01-4.621.94-11.503 2.137-11.963 3.04Z"></path>
  <path class="a a--15" fill="url(#m)" d="M296.971 250.962c.245-3.498-.035-6.882-.033-9.962-4.007 2.345-8.869 5.889-8.862 7.999.007 2.111 4.974 2.087 8.895 1.963Z"></path>
  <path fill="#fff" d="M230.897 162.2s-11.266 33.821-5.001 59.979c6.265 26.159 29.005 34.989 29.005 34.989s-16.871 5.785-13.002 14.995c3.869 9.209 18.236 2.974 23.004 0 4.768-2.974 11.116-11.046 12.002-16.995.898-5.948 0-9.996 0-9.996s19.889-1.294 33.006-11.996c0 0 11.654 8.777 20.003 6.997 8.35-1.779 20.189-16.623 19.003-29.99-1.198-13.378-9.234-13.074-14.002-10.996-4.768 2.079-6.001 3.999-6.001 3.999s6.852-8.407 0-19.993c-6.852-11.587-19.003-12.996-19.003-12.996s-4.282-18.86-15.003-25.991c-10.733-7.131-48.809-14.699-64.011 17.994Z"></path>
  <path fill="#fff" d="M230.897 162.2s-11.266 33.821-5.001 59.979c6.265 26.159 29.005 34.989 29.005 34.989s-16.871 5.785-13.002 14.995c3.869 9.209 18.236 2.974 23.004 0 4.768-2.974 11.116-11.046 12.002-16.995.898-5.948 0-9.996 0-9.996s19.889-1.294 33.006-11.996c0 0 11.654 8.777 20.003 6.997 8.35-1.779 20.189-16.623 19.003-29.99-1.198-13.378-9.234-13.074-14.002-10.996-4.768 2.079-6.001 3.999-6.001 3.999s6.852-8.407 0-19.993c-6.852-11.587-19.003-12.996-19.003-12.996s-4.282-18.86-15.003-25.991c-10.733-7.131-48.809-14.699-64.011 17.994Z"></path>
  <path fill="#CCE8FF" d="M319.937 174.195c-8.439 14.022-26.021 29.637-52.965 31.99-23.701 2.078-36.843-1.762-42.972-4.999.826-20.042 6.995-38.987 6.995-38.987 15.19-32.691 53.233-25.125 63.958-17.994 10.725 7.13 14.99 25.991 14.99 25.991s4.691.834 9.994 3.999Zm14.99 24.992c-4.764 2.078-5.996 3.998-5.996 3.998s1.28-2.793 1.998-6.997c-16.1 7.99-13.978 24.992-15.989 24.992-2.454 0-3.997-7.998-3.997-7.998s-3.54 11.394-21.986 19.994c-18.446 8.599-38.974 1.999-38.974 1.999s4.077 10.227-6.996 8.997c-3.734-.418-6.887-1.518-8.994-2.999 8.942 11.837 20.987 15.995 20.987 15.995s-16.858 5.786-12.992 14.995c3.866 9.209 18.221 2.974 22.985 0 4.764-2.974 11.106-11.046 11.992-16.994.898-5.948 0-9.997 0-9.997s19.883-1.294 32.978-11.996c0 0 11.644 8.777 19.987 6.997 8.343-1.779 20.172-16.625 18.987-29.99-1.197-13.377-9.226-13.074-13.99-10.996Z"></path>
  <path stroke="#7992B2" stroke-linecap="round" stroke-linejoin="round" stroke-width="1.335" d="M278 244.966s-20.014 1.48-34-14.966"></path>
  <path stroke="#7992B2" stroke-linecap="round" stroke-linejoin="round" stroke-width="1.335" d="M230.897 162.2s-11.266 33.821-5.001 59.979c6.265 26.159 29.005 34.989 29.005 34.989s-16.871 5.785-13.002 14.995c3.869 9.209 18.236 2.974 23.004 0 4.768-2.974 11.116-11.046 12.002-16.995.898-5.948 0-9.996 0-9.996s19.889-1.294 33.006-11.996c0 0 11.654 8.777 20.003 6.997 8.35-1.779 20.189-16.623 19.003-29.99-1.198-13.378-9.234-13.074-14.002-10.996-4.768 2.079-6.001 3.999-6.001 3.999s6.852-8.407 0-19.993c-6.852-11.587-19.003-12.996-19.003-12.996s-4.282-18.86-15.003-25.991c-10.733-7.131-48.809-14.699-64.011 17.994Z"></path>
  <path stroke="#7992B2" stroke-linecap="round" stroke-linejoin="round" stroke-width="1.335" d="M328 203s-6.105 4.172-9 17"></path>
  <path fill="#fff" d="M341.724 207.972c-.745 2.006-3.827 3.454-5.586 2.914-1.759-.54-2.619-2.851-1.862-4.858.745-2.006 3.827-3.454 5.586-2.914 1.759.54 2.619 2.851 1.862 4.858Z"></path>
  <path stroke="#7992B2" stroke-linecap="round" stroke-linejoin="round" stroke-width="1.335" d="M341.724 207.972c-.745 2.006-3.827 3.454-5.586 2.914-1.759-.54-2.619-2.851-1.862-4.858.745-2.006 3.827-3.454 5.586-2.914 1.759.54 2.619 2.851 1.862 4.858Z"></path>
  <path fill="#fff" d="M347.724 211.972c-.745 2.006-3.827 3.454-5.586 2.914-1.759-.54-2.619-2.851-1.862-4.858.745-2.006 3.827-3.454 5.586-2.914 1.759.54 2.619 2.851 1.862 4.858Z"></path>
  <path stroke="#7992B2" stroke-linecap="round" stroke-linejoin="round" stroke-width="1.335" d="M347.724 211.972c-.745 2.006-3.827 3.454-5.586 2.914-1.759-.54-2.619-2.851-1.862-4.858.745-2.006 3.827-3.454 5.586-2.914 1.759.54 2.619 2.851 1.862 4.858Z"></path>
  <path fill="#fff" d="M347.888 217.968c-.496 1.488-1.719 2.33-2.866 1.935-1.157-.395-2.406-2.371-1.91-3.871.496-1.488 1.719-2.33 2.866-1.935 1.157.395 2.406 2.371 1.91 3.871Z"></path>
  <path stroke="#7992B2" stroke-linecap="round" stroke-linejoin="round" stroke-width="1.335" d="M347.888 217.968c-.496 1.488-1.719 2.33-2.866 1.935-1.157-.395-2.406-2.371-1.91-3.871.496-1.488 1.719-2.33 2.866-1.935 1.157.395 2.406 2.371 1.91 3.871Z"></path>
  <path fill="#fff" d="M339.894 226.066c-2.089 3.943-6.76 4.841-9.823 3.057-3.064-1.783-4.054-6.246-1.965-10.189 2.089-3.943 6.76-4.841 9.823-3.057 3.064 1.783 4.054 6.246 1.965 10.189Z"></path>
  <path stroke="#7992B2" stroke-linecap="round" stroke-linejoin="round" stroke-width="1.335" d="M339.894 226.066c-2.089 3.943-6.76 4.841-9.823 3.057-3.064-1.783-4.054-6.246-1.965-10.189 2.089-3.943 6.76-4.841 9.823-3.057 3.064 1.783 4.054 6.246 1.965 10.189ZM255 257s5.443 3.716 13 1.018M242 273s1.247-5.273 9-9M249 277s2.964-7.54 8-11"></path>
  <path fill="#4D5F7D" d="M454 201v-49h-90v-27L464 0h21v124h25v28h-25v49h-31Zm-58-77h61V47l-61 77ZM257 204c-14.168-.378-26.232-3.767-37-10-10.768-6.233-19.822-13.989-27-24-7.178-10.2-13.222-21.289-17-33-3.589-11.9-5-23.667-5-35 0-12.089 2.033-23.911 6-36 3.967-12.089 9.444-23.178 17-33 7.556-10.011 16.421-18.144 27-24 10.579-6.044 22.776-9 36-9 14.168 0 26.421 3.578 37 10 10.768 6.422 19.822 14.8 27 25 7.178 10.2 12.411 21.1 16 33 3.778 11.9 6 23.044 6 34 0 12.278-2.033 24.911-6 37-3.967 11.9-9.444 22.178-17 32-7.556 9.822-16.421 17.956-27 24-10.39 5.856-22.776 8.811-36 9Zm-54-102c.378 8.689 1.922 17.311 4 26 2.267 8.5 5.466 16.822 10 24 4.534 7.178 10.388 12.656 17 17 6.612 4.344 14.121 6 23 6 9.256 0 17.388-1.467 24-6 6.801-4.722 12.655-11.633 17-19 4.345-7.556 6.922-15.5 9-24 2.267-8.5 4-16.256 4-24 0-8.689-1.544-17.5-4-26-2.267-8.689-5.466-16.822-10-24-4.534-7.178-10.388-12.656-17-17-6.612-4.344-14.31-6-23-6-9.256 0-17.199 2.278-24 7-6.801 4.533-12.655 10.444-17 18-4.345 7.367-7.733 15.5-10 24-2.078 8.5-3 16.256-3 24ZM91 201v-49H1v-27L101 0h21v124h25v28h-25v49H91Zm-58-77h61V47l-61 77Z"></path>
  <path class="a a--17" fill="#fff" d="M205.093 145s-12.241 17.966-14.079 36.066c-1.838 18.099-.498 29.527 5.028 34.061 5.527 4.522 11.008 3.217 14.079-1.001 3.072-4.219-1.005-19.035-1.005-19.035s5.092-14.091 13.073-24.043c7.981-9.953 9.051-12.022 9.051-12.022S217.367 144.091 205.093 145Z"></path>
  <path class="a a--17" fill="#fff" d="M205.093 145s-12.241 17.966-14.079 36.066c-1.838 18.099-.498 29.527 5.028 34.061 5.527 4.522 11.008 3.217 14.079-1.001 3.072-4.219-1.005-19.035-1.005-19.035s5.092-14.091 13.073-24.043c7.981-9.953 9.051-12.022 9.051-12.022S217.367 144.091 205.093 145Z"></path>
  <path class="a a--18" fill="#CCE8FF" d="M205 145s-3.317 5.394-7 12.982c6.045 2.425 15.04 7.232 21 15.978.727-1.049 2.225-2.006 3-2.995 7.838-9.905 9-11.984 9-11.984S217.054 144.095 205 145Z"></path>
  <path class="a a--21" stroke="#7992B2" stroke-linecap="round" stroke-linejoin="round" stroke-width="1.335" d="M205.093 145s-12.241 17.966-14.079 36.066c-1.838 18.099-.498 29.527 5.028 34.061 5.527 4.522 11.008 3.217 14.079-1.001 3.072-4.219-1.005-19.035-1.005-19.035s5.092-14.091 13.073-24.043c7.981-9.953 9.051-12.022 9.051-12.022S217.367 144.091 205.093 145v0Z"></path>
  <path class="a a--22" stroke="#7992B2" stroke-linecap="round" stroke-linejoin="round" stroke-width="1.335" d="M196.24 214.96s-2-4.682-2-12M204.24 216.96s-2.726-5.172-3-14"></path>
  <path class="a a--20" fill="url(#n)" d="M209 176.837c0-3.005-5.709-9.291-14-11.837-1.074 2.718-2.284 5.93-3 8.878 2.243.413 5.97 1.399 9 2.959 4.45 2.282 8 3.429 8 0Z"></path>
  <path class="a a--19" fill="url(#o)" d="M203.947 146c-1.044 1.576-2.74 4.753-4.947 9.035 2.207.577 4.359 1.508 6.925 3.012 9.248 5.388 11.891 5.773 8.904-2.008-1.859-4.847-7.044-7.922-10.882-10.039Z"></path>
  <path class="a a--23" fill="#fff" d="M303.867 137s14.379 16.347 17.9 33.849c3.521 17.503 2.893 29.908-1.989 34.845-4.881 4.938-10.568 3.844-13.922 0-3.366-3.831 0-18.915 0-18.915s-7.271-13.927-15.911-22.899c-8.641-8.971-9.945-9.955-9.945-9.955s11.956-16.651 23.867-16.925Z"></path>
  <path class="a a--23" fill="#fff" d="M303.867 137s14.379 16.347 17.9 33.849c3.521 17.503 2.893 29.908-1.989 34.845-4.881 4.938-10.568 3.844-13.922 0-3.366-3.831 0-18.915 0-18.915s-7.271-13.927-15.911-22.899c-8.641-8.971-9.945-9.955-9.945-9.955s11.956-16.651 23.867-16.925Z"></path>
  <path class="a a--26" fill="#CCE8FF" d="M304 137c-12.08.28-24 17-24 17s1.237 1.837 10 11c1.634 1.704 3.548 3.09 5 5 3.062-5.147 9.147-13.622 19-19-4.866-8.518-10-14-10-14Z"></path>
  <path class="a a--27" stroke="#7992B2" stroke-linecap="round" stroke-linejoin="round" stroke-width="1.335" d="M303.867 137s14.379 16.347 17.9 33.849c3.521 17.503 2.893 29.908-1.989 34.845-4.881 4.938-10.568 3.844-13.922 0-3.366-3.831 0-18.915 0-18.915s-7.271-13.927-15.911-22.899c-8.641-8.971-9.945-9.955-9.945-9.955s11.956-16.651 23.867-16.925v0Z"></path>
  <path class="a a--28" stroke="#7992B2" stroke-linecap="round" stroke-linejoin="round" stroke-width="1.335" d="M320 205s1.405-4.802.884-12M312 208s2.442-5.343 1.929-14"></path>
  <path class="a a--25" fill="url(#p)" d="M303.102 169.04c-.317-3.073 4.826-9.649 12.989-13.04 1.375 2.673 2.975 5.081 3.997 8.025-2.226.636-6.073 2.116-8.993 4.012-4.282 2.767-7.64 4.512-7.993 1.003Z"></path>
  <path class="a a--24" fill="url(#q)" d="M305.06 138c1.215 1.483 3.378 3.97 6.028 8.053-2.164.802-4.59 2.264-7.033 4.027-8.801 6.331-10.275 7.124-8.038-1.007 1.398-5.056 5.384-8.557 9.043-11.073Z"></path>
  <path fill="#fff" d="M203.332 129.774s-3.386 11.886-1.995 16.932c1.38 5.034 7.497.478 13.962 5.976 6.466 5.498 12.418 16.095 36.901 17.927 24.47 1.833 39.804-11.593 44.878-18.923 5.074-7.331 4.197-16.468 12.965-16.932 8.769-.452 1.762-17.17-.997-19.919 0 0 16.954-25.457 16.954-31.872 0-6.414-16.039-4.954-35.903.996 0 0-15.101-7.57-41.887-2.988-26.785 4.582-34.905 11.952-34.905 11.952s-33.6 4.834-35.903 8.964c-2.303 4.117 5.154 21.473 25.93 27.887Z"></path>
  <path fill="#fff" d="M203.332 129.774s-3.386 11.886-1.995 16.932c1.38 5.034 7.497.478 13.962 5.976 6.466 5.498 12.418 16.095 36.901 17.927 24.47 1.833 39.804-11.593 44.878-18.923 5.074-7.331 4.197-16.468 12.965-16.932 8.769-.452 1.762-17.17-.997-19.919 0 0 16.954-25.457 16.954-31.872 0-6.414-16.039-4.954-35.903.996 0 0-15.101-7.57-41.887-2.988-26.785 4.582-34.905 11.952-34.905 11.952s-33.6 4.834-35.903 8.964c-2.303 4.117 5.154 21.473 25.93 27.887Z"></path>
  <path fill="#CCE8FF" d="M310.008 134.782c8.808-.452 1.773-17.16-.999-19.905 0 0 3.316-5.03 6.991-10.947-9.977-5.133-19.368-7.863-21.971-4.976-5.591 6.202-2.542 18.296 0 29.856 2.543 11.561-7.846 16.82-14.98 26.871-7.133 10.052-17.976-.995-17.976-.995-3.566 14.566-18.974 4.976-18.974 4.976-11.725-3.517-31.049-14.858-26.964-22.89 4.072-8.043 5.136-16.367-1.998-22.89-7.133-6.535-35.952-11.943-35.952-11.943-1.494 4.955 5.951 21.724 25.966 27.867 0 0-3.396 11.881-1.998 16.918 1.386 5.026 7.487.483 13.982 5.972 6.494 5.489 12.357 16.084 36.95 17.914 24.582 1.829 39.843-11.591 44.94-18.909 5.097-7.319 4.175-16.456 12.983-16.919Z"></path>
  <path fill="url(#r)" d="M273.987 137.835c.332 2.662-5.723 5.854-13.988 6.738-8.264.883-15.653-1.189-15.986-3.85-.332-2.662 5.723-5.854 13.988-6.738 8.264-.883 15.653 1.2 15.986 3.85Z"></path>
  <path fill="#fff" d="M273.987 137.835c.332 2.662-5.723 5.854-13.988 6.738-8.264.883-15.653-1.189-15.986-3.85-.332-2.662 5.723-5.854 13.988-6.738 8.264-.883 15.653 1.2 15.986 3.85Z" opacity=".5"></path>
  <path stroke="#7992B2" stroke-miterlimit="10" stroke-width="1.335" d="M203.332 129.774s-3.386 11.886-1.995 16.932c1.38 5.034 7.497.478 13.962 5.976 6.466 5.498 12.418 16.095 36.901 17.927 24.47 1.833 39.804-11.593 44.878-18.923 5.074-7.331 4.197-16.468 12.965-16.932 8.769-.452 1.762-17.17-.997-19.919 0 0 16.954-25.457 16.954-31.872 0-6.414-16.039-4.954-35.903.996 0 0-15.101-7.57-41.887-2.988-26.785 4.582-34.905 11.952-34.905 11.952s-33.6 4.834-35.903 8.964c-2.303 4.117 5.154 21.473 25.93 27.887Z"></path>
  <path fill="url(#s)" d="M299.046 93.053c-12.037 8.302-8.415 16.501-2.995 21.11 3.303 2.817 9.324 1.746 12.978 1.005 0 0 16.971-25.509 16.971-32.168 0 0-14.904 1.75-26.954 10.053Z"></path>
  <path fill="url(#t)" d="M177.177 102.036c-1.471 5.057 6.152 21.694 25.851 27.964 0 0 14.96-1.612 9.943-13.982-4.684-11.545-28.809-14.382-35.794-13.982Z"></path>
  <path fill="url(#u)" d="M248 80c-1.561.28-2.57.696-4 1 2.353 12.287 6.524 33 10 33s5.865-22.433 7-35c-3.818.158-8.46.197-13 1Z"></path>
  <path fill="url(#v)" d="M234.776 110.794c3.604-2.174 3.491-18.929 2.925-27.794-4.381 1.135-8.721 2.799-11.701 3.97 1.319 8.298 4.937 26.143 8.776 23.824Z"></path>
  <path fill="url(#w)" d="M270.013 102.91c3.594 1.331 5.854-12.44 6.987-22.914A69.325 69.325 0 0 0 266.021 79c-.114 8.611.112 22.483 3.992 23.91Z"></path>
  <path fill="#070E18" d="M250.064 140.009c.992 2.349 1.481 4.414 0 4.914-1.482.511-3.122-1.594-4.128-3.932-.992-2.349-1.481-4.414 0-4.914 1.482-.511 3.122 1.594 4.128 3.932ZM267.084 138.003c-.403 2.446.711 4.706 1.933 4.971 1.221.265 2.495-1.531 2.899-3.977.403-2.446-.711-4.706-1.933-4.971-1.221-.265-2.495 1.531-2.899 3.977Z"></path>
  <path stroke="#7992B2" stroke-linecap="round" stroke-linejoin="round" stroke-width="1.335" d="M261 158s-7.34 11.25-15 0M261 156.068s6.04 7.406 11.805 4.067c5.765-3.339 1.968-8.135 1.968-8.135"></path>
  <path stroke="#7992B2" stroke-linecap="round" stroke-linejoin="round" stroke-width="4.018" d="M235 130s2.098-7.414 12-5.759M265 123.038s7.293-3.733 14 2.962"></path>
  <path stroke="#7992B2" stroke-linecap="round" stroke-miterlimit="10" stroke-width="1.335" d="m229 150 7 2M235 155l-6 1M236 158l-4 2M282 146l6-1M283 150h4M284 153l6 1"></path>
  <path fill="#070E18" d="M264.957 149.224c-2.008-.473-5.847-.355-9.828 1.928-.594.335-1.482 1.467-.982 1.928l6.879 5.784c.511.462 1.68-.352 1.965-.964l2.949-6.748c.261-.553-.377-1.79-.983-1.928Z"></path>
  <defs>
    <linearGradient id="a" x1="371.5" x2="371.5" y1="273" y2="298" gradientUnits="userSpaceOnUse">
      <stop stop-color="#0080FF"></stop>
      <stop offset="1" stop-color="#0080FF" stop-opacity=".49"></stop>
    </linearGradient>
    <linearGradient id="b" x1="374.5" x2="374.5" y1="237" y2="266" gradientUnits="userSpaceOnUse">
      <stop stop-color="#0080FF"></stop>
      <stop offset="1" stop-color="#0080FF" stop-opacity=".49"></stop>
    </linearGradient>
    <linearGradient id="c" x1="430" x2="430" y1="237" y2="298" gradientUnits="userSpaceOnUse">
      <stop stop-color="#0080FF"></stop>
      <stop offset="1" stop-color="#0080FF" stop-opacity=".49"></stop>
    </linearGradient>
    <linearGradient id="d" x1="480.5" x2="480.5" y1="284" y2="317" gradientUnits="userSpaceOnUse">
      <stop stop-color="#0080FF"></stop>
      <stop offset="1" stop-color="#0080FF" stop-opacity=".49"></stop>
    </linearGradient>
    <linearGradient id="e" x1="444" x2="444" y1="215" y2="277" gradientUnits="userSpaceOnUse">
      <stop stop-color="#0080FF"></stop>
      <stop offset="1" stop-color="#0080FF" stop-opacity=".49"></stop>
    </linearGradient>
    <linearGradient id="f" x1="506" x2="506" y1="232" y2="265" gradientUnits="userSpaceOnUse">
      <stop stop-color="#0080FF"></stop>
      <stop offset="1" stop-color="#0080FF" stop-opacity=".49"></stop>
    </linearGradient>
    <linearGradient id="g" x1="481.5" x2="481.5" y1="195" y2="252" gradientUnits="userSpaceOnUse">
      <stop stop-color="#0080FF"></stop>
      <stop offset="1" stop-color="#0080FF" stop-opacity=".49"></stop>
    </linearGradient>
    <linearGradient id="h" x1="213.09" x2="213.197" y1="253.28" y2="285.255" gradientUnits="userSpaceOnUse">
      <stop stop-color="#0080FF"></stop>
      <stop offset="1" stop-color="#0080FF" stop-opacity=".49"></stop>
    </linearGradient>
    <linearGradient id="i" x1="228.216" x2="228.256" y1="291.23" y2="303.23" gradientUnits="userSpaceOnUse">
      <stop stop-color="#0080FF"></stop>
      <stop offset="1" stop-color="#0080FF" stop-opacity=".49"></stop>
    </linearGradient>
    <linearGradient id="j" x1="252.733" x2="252.773" y1="296.148" y2="308.148" gradientUnits="userSpaceOnUse">
      <stop stop-color="#0080FF"></stop>
      <stop offset="1" stop-color="#0080FF" stop-opacity=".49"></stop>
    </linearGradient>
    <linearGradient id="k" x1="277.7" x2="277.746" y1="286.065" y2="300.065" gradientUnits="userSpaceOnUse">
      <stop stop-color="#0080FF"></stop>
      <stop offset="1" stop-color="#0080FF" stop-opacity=".49"></stop>
    </linearGradient>
    <linearGradient id="l" x1="288.129" x2="288.166" y1="265.03" y2="276.03" gradientUnits="userSpaceOnUse">
      <stop stop-color="#0080FF"></stop>
      <stop offset="1" stop-color="#0080FF" stop-opacity=".49"></stop>
    </linearGradient>
    <linearGradient id="m" x1="292.549" x2="292.583" y1="241.015" y2="251.015" gradientUnits="userSpaceOnUse">
      <stop stop-color="#0080FF"></stop>
      <stop offset="1" stop-color="#0080FF" stop-opacity=".49"></stop>
    </linearGradient>
    <linearGradient id="n" x1="200.5" x2="200.5" y1="165" y2="179" gradientUnits="userSpaceOnUse">
      <stop stop-color="#0080FF"></stop>
      <stop offset="1" stop-color="#0080FF" stop-opacity=".49"></stop>
    </linearGradient>
    <linearGradient id="o" x1="207.5" x2="207.5" y1="146" y2="162" gradientUnits="userSpaceOnUse">
      <stop stop-color="#0080FF"></stop>
      <stop offset="1" stop-color="#0080FF" stop-opacity=".49"></stop>
    </linearGradient>
    <linearGradient id="p" x1="311.588" x2="311.588" y1="156" y2="171" gradientUnits="userSpaceOnUse">
      <stop stop-color="#0080FF"></stop>
      <stop offset="1" stop-color="#0080FF" stop-opacity=".49"></stop>
    </linearGradient>
    <linearGradient id="q" x1="303.088" x2="303.088" y1="138" y2="155" gradientUnits="userSpaceOnUse">
      <stop stop-color="#0080FF"></stop>
      <stop offset="1" stop-color="#0080FF" stop-opacity=".49"></stop>
    </linearGradient>
    <linearGradient id="r" x1="259" x2="259" y1="133.779" y2="144.779" gradientUnits="userSpaceOnUse">
      <stop stop-color="#0080FF"></stop>
      <stop offset="1" stop-color="#0080FF" stop-opacity=".49"></stop>
    </linearGradient>
    <linearGradient id="s" x1="308.5" x2="308.5" y1="83" y2="116" gradientUnits="userSpaceOnUse">
      <stop stop-color="#0080FF"></stop>
      <stop offset="1" stop-color="#0080FF" stop-opacity=".49"></stop>
    </linearGradient>
    <linearGradient id="t" x1="195.5" x2="195.5" y1="102" y2="130" gradientUnits="userSpaceOnUse">
      <stop stop-color="#0080FF"></stop>
      <stop offset="1" stop-color="#0080FF" stop-opacity=".49"></stop>
    </linearGradient>
    <linearGradient id="u" x1="252.5" x2="252.5" y1="79" y2="114" gradientUnits="userSpaceOnUse">
      <stop stop-color="#0080FF"></stop>
      <stop offset="1" stop-color="#0080FF" stop-opacity=".49"></stop>
    </linearGradient>
    <linearGradient id="v" x1="232" x2="232" y1="83" y2="111" gradientUnits="userSpaceOnUse">
      <stop stop-color="#0080FF"></stop>
      <stop offset="1" stop-color="#0080FF" stop-opacity=".49"></stop>
    </linearGradient>
    <linearGradient id="w" x1="271.5" x2="271.5" y1="79" y2="103" gradientUnits="userSpaceOnUse">
      <stop stop-color="#0080FF"></stop>
      <stop offset="1" stop-color="#0080FF" stop-opacity=".49"></stop>
    </linearGradient>
  </defs>
</svg>
